<?xml version="1.0" encoding="UTF-8"?>
<svg id="Layer_1" data-name="Layer 1" xmlns="http://www.w3.org/2000/svg" viewBox="0 0 352.56 160.76">
  <defs>
    <style>
      .cls-1 {
        stroke: #fff;
        stroke-miterlimit: 10;
      }

      .cls-1, .cls-2 {
        fill: #e09f20;
      }
    </style>
  </defs>
  <path class="cls-1" d="M78.32,56.6L12.6,121.36c30.29,51.78,106.96,51.88,137.39.21L78.32,56.6ZM76.86,122.97h-19v-18h19v18ZM76.86,100.72h-18.5c0-10.04,8.14-18.41,18.5-19.59v19.59ZM100.86,122.97h-20v-18h20v18ZM80.86,100.72v-19.68c10.83.74,19.5,9.32,19.5,19.68h-19.5Z"/>
  <path class="cls-2" d="M329.06,56.76l-11.4,11.4-10.65-10.65-19.06,19.06-19.62-19.62-17.87,17.87-17.73-17.73-14.94,14.94-15.43-15.43h-29v-13.37h-22.41v.06C104.78-40.38-19.84,7.22,2.7,101.11l27.66-27.25v-25.39h15v10.61l33.46-32.97,79.03,71.64,15.51,14.72v-8.5h155.5l23.71-23.71-23.5-23.5ZM224.81,94.42h-51.45v-10.83h62.28l-10.83,10.83Z"/>
</svg>